/* XPM */
static char * nwb_xpm[] = {
"32 32 42 1",
" 	c None",
".	c #C08080",
"+	c #C06040",
"@	c #A06040",
"#	c #A06080",
"$	c #FFFBF0",
"%	c #A04040",
"&	c #C04040",
"*	c #C04080",
"=	c #C0C0C0",
"-	c #C0DCC0",
";	c #C06080",
">	c #A02040",
",	c #802000",
"'	c #A02000",
")	c #E0A080",
"!	c #E0A0C0",
"~	c #802040",
"{	c #602040",
"]	c #A08080",
"^	c #C0A080",
"/	c #A0A0A4",
"(	c #804040",
"_	c #800000",
":	c #C02040",
"<	c #C0A0C0",
"[	c #FFFFFF",
"}	c #C02000",
"|	c #A00040",
"1	c #E06080",
"2	c #E08080",
"3	c #A6CAF0",
"4	c #E0C080",
"5	c #800040",
"6	c #602000",
"7	c #A04080",
"8	c #E06040",
"9	c #E04040",
"0	c #E00040",
"a	c #E02040",
"b	c #FF0000",
"c	c #E02000",
".++@++#$.%+&&+%@*&&+++++&=-@%;+#",
"&>>,''>)!~{%#]^///]#(>>_%$]_>''>",
"%>',>'_+$.^==-------=!#~!!>''':>",
"%>'''''&-=$--$--$$----=<$%_>'''(",
"&'':'>;!----$$$$$$$$$$$--.>_'''%",
"&>''>]=---$$$$$$[$$[$$----^>}>>:",
"%>|';=$-$$$[$$[[[$$$$$$$$--.>'~>",
"$!).=--$$[$[[[$[[$$[[$$$$$--.12)",
";1)--$$$$$$[[[[[[[$[$[$[$$--3=!4",
"&_#=-$$$$[[[[[[[[[[[[[[[$$$$$._:",
"&>^-$$$[[$[[$[[[[[[[[$[$[$$--=%:",
"&&=-$-[[[[$[[[[[$[[[$$[[[[$$$=;:",
"&;-=!$[[$!$$!$[[$$[[$!$$====--/&",
"&.-%5.$[;_!^~2$$>%$[;_<=_>&>(-=&",
"&^$&_~2[;_!$>%$2'_!$>%$=_.$+_!=+",
"&/-%>,,^._=$1~^%''%)6.$!,~#,+$-+",
"&=-%'.%'>,![-~:']#,:>$[!_>#(><-+",
"&<-%_$!%'_![$%_>$!~_;[[!_;$)_7=8",
"9<-%_=[!~,!$[2,;[$@,![[=_>#%~.=9",
"&2-<!$$$!!$[[$<$[[-!$[[$!!!^=-=&",
"9&=-$$$[$$$[[[$$[[$$[[[$[[[$$-.&",
"9&=--$$$$[$[[[[[[[[$[[$[[$$-$=&:",
"9:.--$$$$[[[[$[[[[[$[[$$$$$$-=&9",
"901---$$[$[$[[[[[[[[[$[$[$-$=;09",
"a.$<=-$$$$$[[[[[[[[[$$$$$-$=$2}9",
")$10^--$$$$$$$$[$[[[[[$$$--=2$1a",
"$2baa^---$$$$$$$[[$$[$$$3-=902$2",
"2}cab9!--$$$$$$$$$$$$$$--=9cc0)$",
"aa9cc02-=----$$$$$$$$$-=290aca0)",
"9accba$2;2=----$----$==$90ac9cba",
"9aaa02$aba92)=----=!2&&!):aacb9a",
"9a9aa!)a99aaa9111199aaa9$1aa9aa9"};
