/* XPM */
static char * scisip32_xpm[] = {
"32 32 515 2",
"  	c None",
". 	c #438468",
"+ 	c #4E8667",
"@ 	c #4F7F5D",
"# 	c #4D7965",
"$ 	c #45727A",
"% 	c #2E585B",
"& 	c #3C4949",
"* 	c #4D594E",
"= 	c #6A8068",
"- 	c #8EAF8E",
"; 	c #98A696",
"> 	c #999696",
", 	c #9A9898",
"' 	c #969494",
") 	c #868384",
"! 	c #5F7566",
"~ 	c #3A6B4A",
"{ 	c #306140",
"] 	c #677172",
"^ 	c #96908E",
"/ 	c #BEBBBB",
"( 	c #C8C6C8",
"_ 	c #ADAAAD",
": 	c #97A799",
"< 	c #B9CBBB",
"[ 	c #E4E3E4",
"} 	c #E3E3E3",
"| 	c #E4E3E3",
"1 	c #D3D5D5",
"2 	c #94A1A4",
"3 	c #8B9F94",
"4 	c #A0A59E",
"5 	c #918989",
"6 	c #7B8081",
"7 	c #B3B0B1",
"8 	c #F4EEEE",
"9 	c #FFFFFF",
"0 	c #EFEEEF",
"a 	c #ABACAB",
"b 	c #BCC4BE",
"c 	c #EEF1F1",
"d 	c #899B9E",
"e 	c #959D9D",
"f 	c #C7C4C6",
"g 	c #E8E9E9",
"h 	c #EDE9E9",
"i 	c #E1DADA",
"j 	c #B2CCD1",
"k 	c #DAD3D2",
"l 	c #EEEDEE",
"m 	c #D4D3D3",
"n 	c #FEFEFE",
"o 	c #EBEEEE",
"p 	c #85989B",
"q 	c #ABAEB0",
"r 	c #F2F2F1",
"s 	c #FBFBFA",
"t 	c #DCE3DC",
"u 	c #FFFCF9",
"v 	c #DAEEF2",
"w 	c #DED7D5",
"x 	c #FBFBFB",
"y 	c #E9EDEE",
"z 	c #84979B",
"A 	c #D1D2D3",
"B 	c #FFFFFE",
"C 	c #B3C1AF",
"D 	c #698467",
"E 	c #97B19C",
"F 	c #FFFFFD",
"G 	c #D9F1F5",
"H 	c #C0BAB9",
"I 	c #EDF6F7",
"J 	c #EBF4F6",
"K 	c #FFFEFF",
"L 	c #E7ECEC",
"M 	c #8C9EA1",
"N 	c #EAEAEA",
"O 	c #F3F6F2",
"P 	c #8BA685",
"Q 	c #75906D",
"R 	c #628162",
"S 	c #D0DBD1",
"T 	c #808E8E",
"U 	c #FFFAF9",
"V 	c #FBFEFF",
"W 	c #BADBE1",
"X 	c #8EC6CD",
"Y 	c #8FC8D0",
"Z 	c #ADDAE0",
"` 	c #EFF7F8",
" .	c #E3E8EA",
"..	c #889CA5",
"+.	c #F9F5F5",
"@.	c #EBEFE9",
"#.	c #7F9F75",
"$.	c #6A8763",
"%.	c #51775E",
"&.	c #B6C7BF",
"*.	c #F9FDFD",
"=.	c #C1BCBA",
"-.	c #C3DDDE",
";.	c #7BB8C0",
">.	c #88C5CD",
",.	c #8CC9D2",
"'.	c #83C8D1",
").	c #AADBE1",
"!.	c #FDFEFE",
"~.	c #E8EDF0",
"{.	c #6FA3B8",
"].	c #88B7CA",
"^.	c #A9CAD6",
"/.	c #B3CBB7",
"(.	c #72996E",
"_.	c #4B7F6B",
":.	c #468C7D",
"<.	c #C4D3D0",
"[.	c #CCECF0",
"}.	c #467865",
"|.	c #E6E4E3",
"1.	c #FEFDFB",
"2.	c #93B9B4",
"3.	c #77B8C0",
"4.	c #88C9D2",
"5.	c #8CD1DB",
"6.	c #8FD7E0",
"7.	c #79C1CB",
"8.	c #CEE5E8",
"9.	c #EBF4F5",
"0.	c #6FC7D4",
"a.	c #55C0D1",
"b.	c #5BC7D6",
"c.	c #5CB1B0",
"d.	c #4D8979",
"e.	c #40A18C",
"f.	c #5F9388",
"g.	c #DAD7D7",
"h.	c #EFF3F2",
"i.	c #4B765B",
"j.	c #F4F2F2",
"k.	c #FFFCFB",
"l.	c #94B3B0",
"m.	c #7AC7D0",
"n.	c #7AB9C2",
"o.	c #6B9DA4",
"p.	c #6C9CA4",
"q.	c #4F9BAB",
"r.	c #A1DFE6",
"s.	c #EEF2F3",
"t.	c #5E9FB7",
"u.	c #4694B1",
"v.	c #4E97B5",
"w.	c #4893AE",
"x.	c #32817D",
"y.	c #4F897E",
"z.	c #969696",
"A.	c #F3F0F0",
"B.	c #B5C9C5",
"C.	c #477656",
"D.	c #F3F4F4",
"E.	c #ABB0B1",
"F.	c #649CA3",
"G.	c #65A1A9",
"H.	c #6AA2AA",
"I.	c #5B929B",
"J.	c #357595",
"K.	c #62B9CD",
"L.	c #95D5E0",
"M.	c #83A9C2",
"N.	c #8AB1C3",
"O.	c #85AFBC",
"P.	c #45809B",
"Q.	c #397899",
"R.	c #3F81A7",
"S.	c #337C97",
"T.	c #457E7B",
"U.	c #868382",
"V.	c #DBD8D8",
"W.	c #E0E9E9",
"X.	c #34706A",
"Y.	c #19706C",
"Z.	c #2B7960",
"`.	c #37704C",
" +	c #E7EDEB",
".+	c #E7E4E4",
"++	c #707070",
"@+	c #52797E",
"#+	c #74BCC6",
"$+	c #5FB9C7",
"%+	c #47BBCE",
"&+	c #3D9CB7",
"*+	c #39A3BC",
"=+	c #276E96",
"-+	c #2E83A2",
";+	c #3494AB",
">+	c #41A1B5",
",+	c #44A6BB",
"'+	c #46BCD2",
")+	c #4F95A0",
"!+	c #7D7A7A",
"~+	c #D4D2D2",
"{+	c #B7D4D1",
"]+	c #3D817B",
"^+	c #0E5B53",
"/+	c #196B63",
"(+	c #2A7455",
"_+	c #20643B",
":+	c #C3D6CB",
"<+	c #EBE9E9",
"[+	c #928C8C",
"}+	c #525757",
"|+	c #3C6A71",
"1+	c #3FACBE",
"2+	c #296C99",
"3+	c #3892B2",
"4+	c #2E739A",
"5+	c #3DA2BC",
"6+	c #43AFCB",
"7+	c #43B2CB",
"8+	c #44C3D6",
"9+	c #4AAAB8",
"0+	c #7D8080",
"a+	c #D2CECE",
"b+	c #ECF5F4",
"c+	c #72B1AA",
"d+	c #1A796E",
"e+	c #176E64",
"f+	c #1A675F",
"g+	c #15665C",
"h+	c #2A704E",
"i+	c #196237",
"j+	c #6DA083",
"k+	c #D7D5D5",
"l+	c #898381",
"m+	c #495253",
"n+	c #22465F",
"o+	c #2F8DAC",
"p+	c #2876A1",
"q+	c #379CB9",
"r+	c #3FB4CC",
"s+	c #38A5BE",
"t+	c #38A1BA",
"u+	c #697D81",
"v+	c #CFC8C6",
"w+	c #CEE5E1",
"x+	c #42A297",
"y+	c #0D7B70",
"z+	c #187A71",
"A+	c #187268",
"B+	c #14675D",
"C+	c #14645B",
"D+	c #266949",
"E+	c #22683E",
"F+	c #1D693F",
"G+	c #A6C2B4",
"H+	c #DAD5D4",
"I+	c #86807D",
"J+	c #3B4B51",
"K+	c #205B7A",
"L+	c #3098B8",
"M+	c #3DB3CA",
"N+	c #36B2CD",
"O+	c #4C8595",
"P+	c #BBB1B0",
"Q+	c #D4E1E4",
"R+	c #237171",
"S+	c #0F8C7D",
"T+	c #198378",
"U+	c #1C7A70",
"V+	c #1A7067",
"W+	c #12655C",
"X+	c #14655C",
"Y+	c #2E6458",
"Z+	c #1D4434",
"`+	c #1F4C3E",
" @	c #266E47",
".@	c #9FCAAC",
"+@	c #C8C3C1",
"@@	c #605E5F",
"#@	c #27575D",
"$@	c #2E9188",
"%@	c #2A8486",
"&@	c #879598",
"*@	c #FBF8F7",
"=@	c #F9FDFE",
"-@	c #61A4B7",
";@	c #0E6E80",
">@	c #1A8B77",
",@	c #14856F",
"'@	c #447069",
")@	c #626767",
"!@	c #4A6663",
"~@	c #17665D",
"{@	c #51949F",
"]@	c #294149",
"^@	c #1B4230",
"/@	c #227337",
"(@	c #248237",
"_@	c #68A873",
":@	c #D8E8DA",
"<@	c #F1EEED",
"[@	c #837D7C",
"}@	c #2E7D64",
"|@	c #409A81",
"1@	c #D2CDCD",
"2@	c #D3E1E4",
"3@	c #387C8E",
"4@	c #298090",
"5@	c #19826F",
"6@	c #118568",
"7@	c #809F97",
"8@	c #BEB3B5",
"9@	c #839290",
"0@	c #156A60",
"a@	c #264145",
"b@	c #184B25",
"c@	c #246F2F",
"d@	c #287937",
"e@	c #1E7A2D",
"f@	c #338A41",
"g@	c #91C198",
"h@	c #EAF4EC",
"i@	c #F8F5F6",
"j@	c #6F7D7B",
"k@	c #588D84",
"l@	c #FAF7F8",
"m@	c #DDDFE0",
"n@	c #6B7271",
"o@	c #596262",
"p@	c #526866",
"q@	c #506E67",
"r@	c #D6DDDC",
"s@	c #9FB9B5",
"t@	c #13625B",
"u@	c #254444",
"v@	c #1A5223",
"w@	c #246D2F",
"x@	c #267332",
"y@	c #2B7E38",
"z@	c #258134",
"A@	c #1F832F",
"B@	c #3F974C",
"C@	c #9ACAA2",
"D@	c #ECF6ED",
"E@	c #D9D7D7",
"F@	c #9A9F9D",
"G@	c #ECE8E8",
"H@	c #B8B3B4",
"I@	c #B4AFB0",
"J@	c #AEA7A9",
"K@	c #AEA6A8",
"L@	c #F2F0F0",
"M@	c #789285",
"N@	c #2A4E4D",
"O@	c #1B5221",
"P@	c #236D2F",
"Q@	c #2A7F37",
"R@	c #2D8A3D",
"S@	c #2D833A",
"T@	c #247530",
"U@	c #1D7429",
"V@	c #449255",
"W@	c #ADCFC6",
"X@	c #FDFDFD",
"Y@	c #D3D4D4",
"Z@	c #D1E4DF",
"`@	c #D6E6E5",
" #	c #DCEAE9",
".#	c #E7F0ED",
"+#	c #F3F8EF",
"@#	c #F3F9F0",
"##	c #F4F9F3",
"$#	c #F7F9F6",
"%#	c #FCFDF9",
"&#	c #577A6B",
"*#	c #22572A",
"=#	c #267136",
"-#	c #277338",
";#	c #2A7A3C",
">#	c #2C7A3D",
",#	c #2F7E40",
"'#	c #379A4D",
")#	c #389B4B",
"!#	c #1E743C",
"~#	c #118C70",
"{#	c #83CCBB",
"]#	c #FCFFFE",
"^#	c #CDD3D3",
"/#	c #379F86",
"(#	c #3CB99B",
"_#	c #41BF9D",
":#	c #3F9D7E",
"<#	c #569264",
"[#	c #34684B",
"}#	c #275745",
"|#	c #2B5144",
"1#	c #41604A",
"2#	c #3E7765",
"3#	c #2D643F",
"4#	c #344C36",
"5#	c #454B47",
"6#	c #4A524C",
"7#	c #515251",
"8#	c #3B804A",
"9#	c #359E4C",
"0#	c #3BA550",
"a#	c #2C864F",
"b#	c #1A937A",
"c#	c #139D7B",
"d#	c #B7DBD6",
"e#	c #E6E9E8",
"f#	c #2E8B7E",
"g#	c #33B298",
"h#	c #40C39E",
"i#	c #349C7B",
"j#	c #2A7D69",
"k#	c #17615C",
"l#	c #094C4C",
"m#	c #085148",
"n#	c #0D443B",
"o#	c #889482",
"p#	c #E5DFE3",
"q#	c #E6E3E6",
"r#	c #EFEAEE",
"s#	c #75A080",
"t#	c #268C3D",
"u#	c #399C4C",
"v#	c #297945",
"w#	c #1D9379",
"x#	c #128E79",
"y#	c #85C5BE",
"z#	c #EBEAED",
"A#	c #3B9286",
"B#	c #36B190",
"C#	c #39A890",
"D#	c #359A77",
"E#	c #33997E",
"F#	c #26736B",
"G#	c #155853",
"H#	c #165A4E",
"I#	c #399587",
"J#	c #9CC5BA",
"K#	c #ABB4AD",
"L#	c #1D632A",
"M#	c #2B7B37",
"N#	c #297839",
"O#	c #1B715E",
"P#	c #218475",
"Q#	c #7CB0A8",
"R#	c #E0E2E7",
"S#	c #41AC91",
"T#	c #3EBF93",
"U#	c #37A289",
"V#	c #2E8068",
"W#	c #2F8868",
"X#	c #2F8668",
"Y#	c #297A5E",
"Z#	c #30806C",
"`#	c #DCF2F5",
" $	c #E8E3E7",
".$	c #436048",
"+$	c #1F6124",
"@$	c #38712F",
"#$	c #316644",
"$$	c #1B615D",
"%$	c #94A19E",
"&$	c #C9E7DE",
"*$	c #37B28A",
"=$	c #3AB18A",
"-$	c #329071",
";$	c #256558",
">$	c #2E8973",
",$	c #2D8B6D",
"'$	c #328F73",
")$	c #D6F1F4",
"!$	c #B6B2B6",
"~$	c #3C4537",
"{$	c #354E2A",
"]$	c #294229",
"^$	c #3C4646",
"/$	c #D7D5D6",
"($	c #97D2C1",
"_$	c #2CA681",
":$	c #329275",
"<$	c #246353",
"[$	c #2A7C64",
"}$	c #2B866A",
"|$	c #308778",
"1$	c #F4FBFC",
"2$	c #CECBCD",
"3$	c #827F83",
"4$	c #7D7B7D",
"5$	c #CCCAC9",
"6$	c #EEF7F7",
"7$	c #459684",
"8$	c #1E6B5A",
"9$	c #256756",
"0$	c #22634C",
"a$	c #267158",
"b$	c #38927E",
"c$	c #CFEFF3",
"d$	c #769C84",
"e$	c #125627",
"f$	c #154B2D",
"g$	c #145B51",
"h$	c #276C66",
"i$	c #DEF5F8",
"j$	c #ECF8FA",
"k$	c #F7FCFD",
"l$	c #FEFFFF",
"m$	c #F2F8F7",
"n$	c #7FA59C",
"o$	c #145B34",
"p$	c #317E4D",
"                                                                ",
"                          . + @ # $ %                           ",
"                    & * = - ; > , ' ) ! ~ {                     ",
"                ] ^ / ( _ : < [ } | 1 2 3 4 5 6                 ",
"              7 8 9 9 9 0 a b 9 9 9 c d e f g h i j             ",
"            k 9 9 9 9 9 9 l m n 9 9 o p q r 9 s t u v           ",
"          w 9 9 9 9 9 9 9 9 x n 9 9 y z A 9 B C D E F G         ",
"        H 9 9 9 9 9 I J K 9 9 9 9 9 L M N 9 O P Q R S 9         ",
"      T U 9 9 9 V W X Y Z ` 9 9 9 9  ...+.9 @.#.$.%.&.9 *.      ",
"      =.9 9 9 9 -.;.>.,.'.).!.9 9 9 ~.{.].^./.(._.:.<.9 9 [.    ",
"    }.|.9 9 9 1.2.3.4.5.6.7.8.9 9 9 9.0.a.b.c.d.e.f.g.9 9 h.    ",
"    i.j.9 9 9 k.l.m.n.o.p.q.r.9 9 9 s.t.u.v.w.x.y.z.A.9 9 B.    ",
"    C.D.9 9 9 9 E.F.G.H.I.J.K.L.M.N.O.P.Q.R.S.T.U.V.9 9 W.X.Y.  ",
"  Z.`. +9 9 9 9 .+++@+#+$+%+&+*+=+-+;+>+,+'+)+!+~+9 9 {+]+^+/+  ",
"  (+_+:+9 9 9 9 9 <+[+}+|+1+2+3+4+5+6+7+8+9+0+a+9 b+c+d+e+f+g+  ",
"  h+i+j+9 9 9 9 9 9 9 k+l+m+n+o+p+q+r+s+t+u+v+9 w+x+y+z+A+B+C+  ",
"  D+E+F+G+9 9 9 9 9 9 9 9 H+I+J+K+L+M+N+O+P+9 Q+R+S+T+U+V+W+X+  ",
"  Y+Z+`+ @.@9 9 9 9 9 9 9 9 9 +@@@#@$@%@&@*@=@-@;@>@,@'@)@!@~@  ",
"  {@]@^@/@(@_@:@9 9 9 9 9 9 9 9 <@[@}@|@1@9 2@3@4@5@6@7@8@9@0@  ",
"    a@b@c@d@e@f@g@h@9 9 9 9 9 9 9 i@j@k@l@9 m@n@o@p@q@r@9 s@t@  ",
"    u@v@w@x@y@z@A@B@C@D@9 9 9 9 9 9 E@F@9 9 G@H@I@J@K@L@9 M@    ",
"    N@O@P@x@Q@R@S@T@U@V@W@9 9 9 9 9 X@Y@Z@`@ #.#+#@###$#%#&#    ",
"      *#=#-#;#>#,#'#)#!#~#{#]#9 9 9 9 ^#/#(#_#:#<#[#}#|#1#2#    ",
"      3#4#5#6#7#8#9#0#a#b#c#d#9 9 9 9 e#f#g#h#i#j#k#l#m#n#      ",
"        o#p#q#r#s#t#u#v#w#x#y#9 9 9 9 z#A#B#C#D#E#F#G#H#I#      ",
"        J#9 9 9 K#L#M#N#O#P#Q#9 9 9 9 R#S#T#U#V#W#X#Y#Z#        ",
"          `#9 9  $.$+$@$#$$$%$9 9 9 9 &$*$=$-$;$>$,$'$          ",
"            )$9 9 !$~${$]$^$/$9 9 9 9 ($_$:$<$[$}$|$            ",
"                1$9 2$3$4$5$9 9 9 9 6$7$8$9$0$a$b$              ",
"                  c$9 9 9 9 9 9 9 9 d$e$f$g$h$                  ",
"                        i$j$k$l$m$n$o$p$                        ",
"                                                                "};
