/* XPM */
static char * epic32_xpm[] = {
"32 32 594 2",
"  	c None",
". 	c #A03B5C",
"+ 	c #BC3C66",
"@ 	c #CB416F",
"# 	c #CD4371",
"$ 	c #CE4471",
"% 	c #CC426F",
"& 	c #C13E69",
"* 	c #A83B5F",
"= 	c #8F3C57",
"- 	c #CA3968",
"; 	c #DD4D7C",
"> 	c #E76C94",
", 	c #E981A3",
"' 	c #E88DAB",
") 	c #EA93AF",
"! 	c #E993AF",
"~ 	c #E98FAD",
"{ 	c #E985A6",
"] 	c #E87299",
"^ 	c #DF5482",
"/ 	c #CF3C6C",
"( 	c #AA3C60",
"_ 	c #C63363",
": 	c #E04C7D",
"< 	c #E47C9F",
"[ 	c #E795B0",
"} 	c #E89AB4",
"| 	c #E797B1",
"1 	c #E793AF",
"2 	c #E692AE",
"3 	c #E691AE",
"4 	c #E794AF",
"5 	c #E798B2",
"6 	c #E898B2",
"7 	c #E586A5",
"8 	c #E25986",
"9 	c #D03468",
"0 	c #913E59",
"a 	c #9A3D5B",
"b 	c #D83269",
"c 	c #E16890",
"d 	c #E690AC",
"e 	c #E68FAC",
"f 	c #E589A7",
"g 	c #E691AD",
"h 	c #E58AA8",
"i 	c #E589A8",
"j 	c #E58DAA",
"k 	c #E58AA7",
"l 	c #E591AD",
"m 	c #E37A9D",
"n 	c #DD3B71",
"o 	c #AE355C",
"p 	c #B4466A",
"q 	c #DA3269",
"r 	c #E07397",
"s 	c #E48AA8",
"t 	c #E283A2",
"u 	c #E282A1",
"v 	c #E281A2",
"w 	c #E387A5",
"x 	c #E695B0",
"y 	c #E280A0",
"z 	c #E180A0",
"A 	c #E48DA9",
"B 	c #EFBACC",
"C 	c #E17F9F",
"D 	c #E282A2",
"E 	c #E48AA7",
"F 	c #E58FAB",
"G 	c #DB3E72",
"H 	c #C43867",
"I 	c #8E3652",
"J 	c #DA2F67",
"K 	c #DC6C91",
"L 	c #E181A0",
"M 	c #DF799B",
"N 	c #E07A9B",
"O 	c #E89BB4",
"P 	c #E07C9C",
"Q 	c #DF789A",
"R 	c #ECB1C4",
"S 	c #E184A3",
"T 	c #E07E9E",
"U 	c #E48FAB",
"V 	c #E17D9E",
"W 	c #DF799A",
"X 	c #D8396D",
"Y 	c #B3345E",
"Z 	c #D72A63",
"` 	c #D85A84",
" .	c #DE7798",
"..	c #DD7194",
"+.	c #DB6A90",
"@.	c #DB678D",
"#.	c #DB6A8F",
"$.	c #DC6C90",
"%.	c #E79BB3",
"&.	c #E07F9E",
"*.	c #E07D9D",
"=.	c #E698B2",
"-.	c #DC6A8F",
";.	c #DC6D91",
">.	c #E695AF",
",.	c #DF7A9B",
"'.	c #DC6E92",
").	c #DD7094",
"!.	c #DE7597",
"~.	c #DA698F",
"{.	c #D92D66",
"].	c #923755",
"^.	c #C12D5E",
"/.	c #D53E70",
"(.	c #DB6B90",
"_.	c #DA668C",
":.	c #D96289",
"<.	c #E28AA7",
"[.	c #F0C2D1",
"}.	c #E38CA8",
"|.	c #D96189",
"1.	c #D86087",
"2.	c #E389A7",
"3.	c #D75C84",
"4.	c #E182A1",
"5.	c #E592AD",
"6.	c #E38BA8",
"7.	c #D85F87",
"8.	c #D86288",
"9.	c #D54E7B",
"0.	c #D42A63",
"a.	c #7F334D",
"b.	c #D72963",
"c.	c #D45680",
"d.	c #D75E86",
"e.	c #D65983",
"f.	c #D75F86",
"g.	c #F7E0E8",
"h.	c #FFFFFF",
"i.	c #F8E2E9",
"j.	c #D65C85",
"k.	c #D55680",
"l.	c #DC7194",
"m.	c #E594AE",
"n.	c #D34E7A",
"o.	c #E186A4",
"p.	c #E081A0",
"q.	c #D4527D",
"r.	c #D8658A",
"s.	c #E69CB4",
"t.	c #D65A83",
"u.	c #D55781",
"v.	c #DF82A1",
"w.	c #E594AF",
"x.	c #DD7798",
"y.	c #D65D85",
"z.	c #D53166",
"A.	c #A63056",
"B.	c #BC2B5B",
"C.	c #D03668",
"D.	c #D4547F",
"E.	c #D3517C",
"F.	c #D2507B",
"G.	c #D24E79",
"H.	c #EFC1D1",
"I.	c #FFFEFE",
"J.	c #F8E4EB",
"K.	c #D24F7A",
"L.	c #D14B78",
"M.	c #E495AF",
"N.	c #D04975",
"O.	c #E189A6",
"P.	c #DA6A8F",
"Q.	c #D04673",
"R.	c #E392AC",
"S.	c #D9698D",
"T.	c #D04572",
"U.	c #E391AC",
"V.	c #F7DBE4",
"W.	c #F0C6D4",
"X.	c #EBAFC3",
"Y.	c #DB7396",
"Z.	c #D24F7B",
"`.	c #D04170",
" +	c #CE285E",
".+	c #D2265F",
"++	c #CD3E6C",
"@+	c #D04875",
"#+	c #CF4673",
"$+	c #D04C77",
"%+	c #D7658A",
"&+	c #E9ABC0",
"*+	c #EBB2C5",
"=+	c #CD3D6C",
"-+	c #CD3E6D",
";+	c #E08AA6",
">+	c #CF4572",
",+	c #DE82A0",
"'+	c #D04874",
")+	c #D96B8F",
"!+	c #DF83A1",
"~+	c #CC3C6A",
"{+	c #F0C7D4",
"]+	c #F6DEE6",
"^+	c #F1C7D4",
"/+	c #ECB6C8",
"(+	c #E392AD",
"_+	c #CF4674",
":+	c #D42760",
"<+	c #852D49",
"[+	c #882A4A",
"}+	c #D1275E",
"|+	c #CA3667",
"1+	c #CA3565",
"2+	c #CB3767",
"3+	c #CB3A69",
"4+	c #CC3C6B",
"5+	c #C93263",
"6+	c #C93464",
"7+	c #EAAFC2",
"8+	c #E9AABF",
"9+	c #C6265B",
"0+	c #DB7697",
"a+	c #E18DA9",
"b+	c #E7A2B9",
"c+	c #D2547E",
"d+	c #DE83A1",
"e+	c #CA3768",
"f+	c #C82E60",
"g+	c #DA7194",
"h+	c #F9E8ED",
"i+	c #F8E5EB",
"j+	c #F2CEDA",
"k+	c #F1C6D4",
"l+	c #E292AC",
"m+	c #CB3969",
"n+	c #CC3D6C",
"o+	c #CD295F",
"p+	c #AE2A55",
"q+	c #A82A54",
"r+	c #D95681",
"s+	c #D76B8F",
"t+	c #D56086",
"u+	c #D0517A",
"v+	c #CB3E6D",
"w+	c #C83162",
"x+	c #C62A5D",
"y+	c #E7A6BB",
"z+	c #ECB9CA",
"A+	c #FBF1F4",
"B+	c #DB799A",
"C+	c #CC416F",
"D+	c #EBB5C7",
"E+	c #EDBBCC",
"F+	c #DA7798",
"G+	c #F1CBD8",
"H+	c #F5DDE5",
"I+	c #EBB7C9",
"J+	c #D04E78",
"K+	c #C62C5F",
"L+	c #C83464",
"M+	c #C8295D",
"N+	c #BF2557",
"O+	c #B42454",
"P+	c #C72259",
"Q+	c #C93766",
"R+	c #CD4A75",
"S+	c #D35F85",
"T+	c #D86F92",
"U+	c #D97395",
"V+	c #D76B8E",
"W+	c #D25981",
"X+	c #CC4471",
"Y+	c #C32559",
"Z+	c #CE4874",
"`+	c #FBF0F4",
" @	c #EFC6D4",
".@	c #D97596",
"+@	c #C32357",
"@@	c #C11B51",
"#@	c #C73465",
"$@	c #CF4E78",
"%@	c #C73364",
"&@	c #C32358",
"*@	c #C5295C",
"=@	c #C5295D",
"-@	c #C52559",
";@	c #C32156",
">@	c #B82354",
",@	c #C31D53",
"'@	c #C01F54",
")@	c #BF1B51",
"!@	c #BF184F",
"~@	c #BF1C52",
"{@	c #C22659",
"]@	c #C73766",
"^@	c #CD4D77",
"/@	c #D26186",
"(@	c #D36388",
"_@	c #EAB3C4",
":@	c #DD85A2",
"<@	c #B7003A",
"[@	c #BE164D",
"}@	c #BE174E",
"|@	c #BD154C",
"1@	c #BC0F48",
"2@	c #BD124A",
"3@	c #C12055",
"4@	c #C12156",
"5@	c #C11F55",
"6@	c #CA2159",
"7@	c #B72152",
"8@	c #C11A51",
"9@	c #BE1B50",
"0@	c #BE1A50",
"a@	c #BE184F",
"b@	c #BC134B",
"c@	c #BB0F47",
"d@	c #B7003C",
"e@	c #E39DB4",
"f@	c #EBB9C9",
"g@	c #D15D83",
"h@	c #D25F85",
"i@	c #D05980",
"j@	c #CC4B76",
"k@	c #DF8EA8",
"l@	c #C02055",
"m@	c #BE194F",
"n@	c #C92058",
"o@	c #B22150",
"p@	c #C0174F",
"q@	c #BD194F",
"r@	c #BD184E",
"s@	c #BB134B",
"t@	c #BA0E47",
"u@	c #BC164C",
"v@	c #C22D5E",
"w@	c #CA4872",
"x@	c #E5A3B8",
"y@	c #E196AE",
"z@	c #C53464",
"A@	c #C43463",
"B@	c #C94671",
"C@	c #CC4C76",
"D@	c #D87898",
"E@	c #E8AFC2",
"F@	c #BF2055",
"G@	c #C21D54",
"H@	c #A5214C",
"I@	c #C1174F",
"J@	c #BB154C",
"K@	c #B90F46",
"L@	c #B80E46",
"M@	c #BD1D52",
"N@	c #C63B69",
"O@	c #D05E84",
"P@	c #D67293",
"Q@	c #D46D8F",
"R@	c #CB4F79",
"S@	c #C02A5C",
"T@	c #E8B2C3",
"U@	c #E8B1C3",
"V@	c #C7436C",
"W@	c #D56C8E",
"X@	c #CD547C",
"Y@	c #B6033E",
"Z@	c #B70942",
"`@	c #B91048",
" #	c #BB164D",
".#	c #BB184D",
"+#	c #BD164D",
"@#	c #B91C50",
"##	c #882244",
"$#	c #C3114C",
"%#	c #BF2659",
"&#	c #EBBDCC",
"*#	c #DA839F",
"=#	c #D46E8F",
"-#	c #D06186",
";#	c #C6406C",
">#	c #BD1F53",
",#	c #B70D46",
"'#	c #B30039",
")#	c #D16387",
"!#	c #F3D8E1",
"~#	c #EEC6D3",
"{#	c #F2D3DD",
"]#	c #DC8AA4",
"^#	c #D67494",
"/#	c #B70D45",
"(#	c #B91148",
"_#	c #C7446E",
":#	c #D46F90",
"<#	c #D16286",
"[#	c #C02D5D",
"}#	c #B70C44",
"|#	c #B81047",
"1#	c #BA164C",
"2#	c #BF144C",
"3#	c #AA1F4D",
"4#	c #591D31",
"5#	c #C5144D",
"6#	c #BC2054",
"7#	c #E19DB3",
"8#	c #C84973",
"9#	c #B71046",
"0#	c #B50942",
"a#	c #B60D45",
"b#	c #B81249",
"c#	c #B9154A",
"d#	c #B60A42",
"e#	c #C23463",
"f#	c #EEC8D5",
"g#	c #BE295A",
"h#	c #C02B5C",
"i#	c #CC577D",
"j#	c #B00032",
"k#	c #C43A67",
"l#	c #D67696",
"m#	c #B71047",
"n#	c #B50A42",
"o#	c #B70E46",
"p#	c #C33664",
"q#	c #D2688B",
"r#	c #D16689",
"s#	c #C23462",
"t#	c #B70E45",
"u#	c #C3144E",
"v#	c #852142",
"w#	c #B71D50",
"x#	c #B3043E",
"y#	c #B50B43",
"z#	c #B71248",
"A#	c #B71349",
"B#	c #B71249",
"C#	c #B50D45",
"D#	c #B40A42",
"E#	c #B7144A",
"F#	c #ECC1CF",
"G#	c #CC577E",
"H#	c #B10039",
"I#	c #C02E5E",
"J#	c #CC5A80",
"K#	c #B40942",
"L#	c #B3063F",
"M#	c #C64670",
"N#	c #D26C8D",
"O#	c #B3073F",
"P#	c #B50C43",
"Q#	c #BE295B",
"R#	c #CD5B80",
"S#	c #CF6185",
"T#	c #C03160",
"U#	c #C2144E",
"V#	c #821F40",
"W#	c #C1114A",
"X#	c #B51147",
"Y#	c #B61147",
"Z#	c #B51047",
"`#	c #B30A42",
" $	c #BB2153",
".$	c #B8174C",
"+$	c #DD92AB",
"@$	c #D8809C",
"#$	c #B0003A",
"$$	c #BC2658",
"%$	c #CB567D",
"&$	c #B40941",
"*$	c #B2053E",
"=$	c #C74B73",
"-$	c #D47594",
";$	c #B50F46",
">$	c #B61047",
",$	c #B40C43",
"'$	c #B2073F",
")$	c #BA2153",
"!$	c #C73464",
"~$	c #A51E4A",
"{$	c #BA184D",
"]$	c #B40F45",
"^$	c #CD5D81",
"/$	c #EDC5D2",
"($	c #DE95AC",
"_$	c #B2063E",
":$	c #B30D44",
"<$	c #B91F52",
"[$	c #C95178",
"}$	c #B30941",
"|$	c #B40F46",
"1$	c #B30C44",
"2$	c #ECC2D0",
"3$	c #F2D5DF",
"4$	c #B81D50",
"5$	c #B30B43",
"6$	c #C00D48",
"7$	c #531C2E",
"8$	c #6B1D36",
"9$	c #C10F4A",
"0$	c #B20B42",
"a$	c #B51449",
"b$	c #E3A8BB",
"c$	c #E9BCCA",
"d$	c #EBC0CF",
"e$	c #D6809C",
"f$	c #B0043D",
"g$	c #B30E44",
"h$	c #B30C43",
"i$	c #B7184C",
"j$	c #C64972",
"k$	c #B20941",
"l$	c #B10A41",
"m$	c #C64C74",
"n$	c #CB597E",
"o$	c #B20E44",
"p$	c #BD0C47",
"q$	c #931D43",
"r$	c #941C43",
"s$	c #BD0B46",
"t$	c #B00A41",
"u$	c #B20D44",
"v$	c #D37594",
"w$	c #DD97AE",
"x$	c #DF98AF",
"y$	c #CB5C81",
"z$	c #AF063D",
"A$	c #B10B43",
"B$	c #B41348",
"C$	c #C03B67",
"D$	c #B10C43",
"E$	c #B20C43",
"F$	c #B10D43",
"G$	c #AE033C",
"H$	c #AE023B",
"I$	c #B80A43",
"J$	c #AF184A",
"K$	c #A01945",
"L$	c #BB0944",
"M$	c #AF073E",
"N$	c #B4184B",
"O$	c #C34670",
"P$	c #C13E6A",
"Q$	c #B20F45",
"R$	c #AF0940",
"S$	c #B00B42",
"T$	c #B10F44",
"U$	c #BA2B5B",
"V$	c #B00B41",
"W$	c #AF0B41",
"X$	c #B60942",
"Y$	c #B41449",
"Z$	c #971943",
"`$	c #BD0A45",
" %	c #AF053D",
".%	c #AD033B",
"+%	c #AF073F",
"@%	c #B00A40",
"#%	c #B51B4E",
"$%	c #AF0A40",
"%%	c #AF093F",
"&%	c #BA0842",
"*%	c #AC1547",
"=%	c #761A38",
"-%	c #B80F47",
";%	c #B70741",
">%	c #AF083F",
",%	c #AE093F",
"'%	c #AE0940",
")%	c #B11045",
"!%	c #AE083F",
"~%	c #B40640",
"{%	c #BB0C46",
"]%	c #8F193F",
"^%	c #8E173E",
"/%	c #B90742",
"(%	c #AF063E",
"_%	c #AE073E",
":%	c #AE083E",
"<%	c #AE0A40",
"[%	c #B2063F",
"}%	c #B80741",
"|%	c #B90C45",
"1%	c #9E1542",
"2%	c #52172A",
"3%	c #701734",
"4%	c #99143F",
"5%	c #AC1043",
"6%	c #B60B43",
"7%	c #B60A43",
"8%	c #AE0F43",
"9%	c #9F1340",
"0%	c #7D1738",
"a%	c #441525",
"b%	c #3E1220",
"c%	c #401221",
"                                                                ",
"                        . + @ # $ % & *                         ",
"                  = - ; > , ' ) ! ~ { ] ^ / (                   ",
"                _ : < [ } | 1 2 2 3 4 5 6 7 8 9 0               ",
"            a b c d e f e g f h i j h k h j l m n o             ",
"          p q r s t u v w x y z A B | C D y E F C G H           ",
"        I J K L M M N N N O P Q L R S Q Q T U Q V W X Y         ",
"        Z `  ...+.@.#...$.%.&.K *.=.-...;.>.,.'.).!.~.{.].      ",
"      ^./.(._.:.<.[.}.|.1.}.2.3.4.5.1.1.S 6.1.1.7.8.(.9.0.      ",
"    a.b.c.d.e.f.g.h.i.j.k.l.m.n.o.p.q.r.s.t.u.v.w.x.t.y.z.A.    ",
"    B.C.D.E.F.G.H.I.J.K.L.c.M.N.O.P.Q.R.S.T.U.V.W.X.Y.Z.`. +    ",
"    .+++@+#+#+$ $+%+&+*+=+-+;+>+,+'+)+!+~+=+{+]+^+/+(+_+$ :+<+  ",
"  [+}+|+1+2+3+4+3+5+6+7+8+9+0+a+b+c+d+e+f+g+h+i+j+k+l+m+n+o+p+  ",
"  q+r+s+t+u+v+w+x+x+x+x+y+z+g.h.h.A+B+C+D+E+F+G+H+I+J+K+L+M+N+  ",
"  O+P+Q+R+S+T+U+V+W+X+Y+Z+h.h.h.h.h.`+ @.@+@@@#@$@%@&@*@=@-@;@  ",
"  >@,@'@)@!@~@{@]@^@/@(@_@h.h.h.h.h.h.:@<@[@}@|@1@2@3@4@4@5@6@  ",
"  7@8@)@)@)@9@0@a@b@c@d@e@h.h.h.h.h.h.f@g@h@i@j@/@k@l@m@)@)@n@  ",
"  o@p@q@r@q@r@s@t@u@v@w@x@h.h.h.h.h.h.y@z@A@B@C@D@E@F@u@q@a@G@  ",
"  H@I@J@K@L@M@N@O@P@Q@R@S@T@h.h.h.h.U@V@W@X@M@Y@Z@`@ #.#.#+#@#  ",
"  ##$#%#&#*#=#-#;#>#L@,#'#)#!#~#{#]#^#/#(#_#:#<#[#}#|#1#1#2#3#  ",
"  4#5#6#7#8#9#0#a#b#c#d#e#f#g#h#i#j#k#l#m#n#o#p#q#r#s#o#t#u#v#  ",
"    w#K@x#y#z#A#B#C#D#E#F#G#H#I#J#K#L#M#N#L#O#P#D#Q#R#S#T#U#    ",
"    V#W#X#Y#Y#Z#`# $.$+$@$#$C#$$%$&$Y#*$=$-$M#;$>$,$'$)$!$~$    ",
"      {$a#]$]$'$^$/$/$($_$:$:$<$[$}$|$1$`#2$3$4$`#|$|$5$6$7$    ",
"      8$9$:$0$a$b$c$d$e$f$g$h$i$j$k$g$:$l$m$n$g$:$g$o$p$q$      ",
"        r$s$t$u$v$w$x$y$z$A$0$B$C$t$D$E$F$G$H$D$E$D$I$J$        ",
"          K$L$M$N$O$P$Q$R$S$t$T$U$t$V$V$S$S$S$S$W$X$Y$          ",
"            Z$`$ %.%.%+%@%@%@%V$#%@%@%@%@%@%$%%%&%*%            ",
"              =%-%;%>%,%'%R$R$'%)%R$R$'%,%!%~%{%]%              ",
"                  ^%a#/%L#(%_%:%<%_%M$[%}%|%1%2%                ",
"                      3%4%5%,$6%7%P#8%9%0%a%                    ",
"                              b%c%                              "};
